<svg width="181" height="25" viewBox="0 0 181 25" fill="none" xmlns="http://www.w3.org/2000/svg">
<path d="M64.2684 8.53745C64.2684 8.65771 64.2523 8.8053 64.2202 8.98023C64.188 9.15516 64.129 9.40661 64.0432 9.7346L60.2138 22.9689C60.1601 23.1548 60.0904 23.3078 60.0046 23.4281C59.9188 23.5374 59.7847 23.6249 59.6024 23.6905C59.4307 23.7561 59.1787 23.7998 58.8461 23.8217C58.5243 23.8435 58.1006 23.8545 57.575 23.8545C57.0494 23.8545 56.6204 23.8381 56.2878 23.8053C55.9553 23.7834 55.6925 23.7397 55.4994 23.6741C55.3171 23.6085 55.183 23.521 55.0972 23.4117C55.0114 23.2914 54.947 23.1438 54.9041 22.9689L52.4906 14.0804L52.4584 13.9328L52.4263 14.0804L50.2059 22.9689C50.163 23.1548 50.0986 23.3078 50.0128 23.4281C49.9377 23.5374 49.8036 23.6249 49.6105 23.6905C49.4175 23.7561 49.1547 23.7998 48.8221 23.8217C48.4896 23.8435 48.0605 23.8545 47.5349 23.8545C46.9986 23.8545 46.5642 23.8381 46.2317 23.8053C45.9099 23.7834 45.6524 23.7397 45.4593 23.6741C45.277 23.6085 45.1429 23.521 45.0571 23.4117C44.9713 23.2914 44.9069 23.1438 44.864 22.9689L41.0668 9.7346C40.9703 9.41755 40.9059 9.17156 40.8737 8.99663C40.8523 8.81077 40.8416 8.65771 40.8416 8.53745C40.8416 8.42812 40.8684 8.33519 40.922 8.25866C40.9864 8.17119 41.0936 8.1056 41.2438 8.06186C41.4047 8.0072 41.6139 7.96893 41.8713 7.94707C42.1395 7.9252 42.472 7.91427 42.8689 7.91427C43.2979 7.91427 43.6466 7.9252 43.9147 7.94707C44.1829 7.96893 44.3921 8.0072 44.5422 8.06186C44.6924 8.11653 44.7943 8.19306 44.8479 8.29146C44.9123 8.37892 44.9606 8.48825 44.9927 8.61944L47.8407 19.361L47.8728 19.5578L47.905 19.361L50.5759 8.61944C50.6081 8.48825 50.6564 8.37892 50.7207 8.29146C50.7958 8.19306 50.9031 8.11653 51.0425 8.06186C51.182 8.0072 51.3751 7.96893 51.6218 7.94707C51.8792 7.9252 52.2064 7.91427 52.6033 7.91427C53.0001 7.91427 53.3219 7.93067 53.5687 7.96347C53.8154 7.98533 54.0084 8.0236 54.1479 8.07826C54.2981 8.12199 54.4 8.18759 54.4536 8.27506C54.518 8.35159 54.5662 8.44452 54.5984 8.55385L57.4624 19.3774L57.5107 19.5578L57.5429 19.361L60.2781 8.61944C60.2996 8.48825 60.3425 8.37892 60.4069 8.29146C60.4712 8.19306 60.5785 8.11653 60.7286 8.06186C60.8788 8.0072 61.0826 7.96893 61.3401 7.94707C61.5975 7.9252 61.9247 7.91427 62.3215 7.91427C62.7184 7.91427 63.0402 7.9252 63.2869 7.94707C63.5444 7.96893 63.7428 8.0072 63.8823 8.06186C64.0324 8.1056 64.1343 8.17119 64.188 8.25866C64.2416 8.33519 64.2684 8.42812 64.2684 8.53745Z" fill="#333333"/>
<path d="M81.0824 15.7368C81.0824 16.9831 80.9215 18.1202 80.5997 19.1478C80.2779 20.1755 79.7898 21.0611 79.1355 21.8045C78.4812 22.548 77.6606 23.122 76.6737 23.5265C75.6869 23.931 74.5338 24.1333 73.2144 24.1333C71.9379 24.1333 70.8277 23.9529 69.8838 23.5921C68.9399 23.2313 68.1568 22.7065 67.5347 22.0177C66.9125 21.329 66.4513 20.4817 66.1509 19.4758C65.8506 18.47 65.7004 17.3221 65.7004 16.032C65.7004 14.7856 65.8613 13.6486 66.1831 12.6209C66.5156 11.5823 67.0091 10.6967 67.6634 9.96419C68.3177 9.22075 69.1329 8.64678 70.1091 8.24226C71.0959 7.83774 72.249 7.63548 73.5684 7.63548C74.8556 7.63548 75.9711 7.81587 76.9151 8.17666C77.859 8.52651 78.6367 9.04583 79.2481 9.7346C79.8703 10.4234 80.3315 11.2707 80.6318 12.2765C80.9322 13.2823 81.0824 14.4358 81.0824 15.7368ZM76.9151 15.9008C76.9151 15.1792 76.8561 14.5178 76.7381 13.9164C76.6308 13.3042 76.4431 12.774 76.1749 12.3257C75.9068 11.8775 75.5474 11.5276 75.0969 11.2761C74.6571 11.0247 74.0993 10.899 73.4236 10.899C72.8229 10.899 72.2973 11.0138 71.8468 11.2433C71.3962 11.462 71.0262 11.79 70.7366 12.2273C70.4469 12.6537 70.227 13.173 70.0769 13.7852C69.9374 14.3866 69.8677 15.0753 69.8677 15.8516C69.8677 16.5731 69.9267 17.2401 70.0447 17.8523C70.1627 18.4536 70.3504 18.9784 70.6078 19.4266C70.876 19.8749 71.2353 20.2247 71.6859 20.4762C72.1364 20.7167 72.6942 20.837 73.3592 20.837C73.9706 20.837 74.5016 20.7277 74.9521 20.509C75.4026 20.2794 75.7727 19.9514 76.0623 19.525C76.3519 19.0986 76.5665 18.5848 76.7059 17.9835C76.8454 17.3712 76.9151 16.677 76.9151 15.9008Z" fill="#333333"/>
<path d="M93.5198 9.93139C93.5198 10.325 93.5091 10.6475 93.4877 10.899C93.4662 11.1504 93.434 11.3472 93.3911 11.4893C93.3482 11.6315 93.2892 11.7299 93.2141 11.7845C93.1498 11.8392 93.064 11.8665 92.9567 11.8665C92.8709 11.8665 92.7743 11.8501 92.6671 11.8173C92.5598 11.7736 92.4365 11.7299 92.297 11.6861C92.1683 11.6424 92.0235 11.6041 91.8626 11.5713C91.7017 11.5276 91.5247 11.5057 91.3316 11.5057C91.1064 11.5057 90.8811 11.5549 90.6558 11.6533C90.4306 11.7408 90.1946 11.8829 89.9479 12.0797C89.7119 12.2765 89.4598 12.5389 89.1917 12.8669C88.9342 13.1949 88.6553 13.5994 88.355 14.0804V23.1985C88.355 23.3078 88.3228 23.4062 88.2584 23.4937C88.1941 23.5702 88.0815 23.6358 87.9206 23.6905C87.7704 23.7451 87.5666 23.7834 87.3091 23.8053C87.0517 23.8381 86.7245 23.8545 86.3277 23.8545C85.9308 23.8545 85.6036 23.8381 85.3462 23.8053C85.0887 23.7834 84.8796 23.7451 84.7187 23.6905C84.5685 23.6358 84.4612 23.5702 84.3969 23.4937C84.3325 23.4062 84.3003 23.3078 84.3003 23.1985V8.57024C84.3003 8.46092 84.3271 8.36799 84.3808 8.29146C84.4344 8.20399 84.531 8.13293 84.6704 8.07826C84.8098 8.0236 84.9868 7.98533 85.2014 7.96347C85.4266 7.93067 85.7055 7.91427 86.038 7.91427C86.3813 7.91427 86.6655 7.93067 86.8908 7.96347C87.1161 7.98533 87.2877 8.0236 87.4057 8.07826C87.5344 8.13293 87.6256 8.20399 87.6792 8.29146C87.7328 8.36799 87.7597 8.46092 87.7597 8.57024V10.3906C88.1351 9.84393 88.4891 9.39568 88.8216 9.04583C89.1541 8.68504 89.4705 8.40078 89.7709 8.19306C90.0712 7.98533 90.3716 7.84321 90.6719 7.76667C90.9723 7.67921 91.2726 7.63548 91.573 7.63548C91.7124 7.63548 91.8626 7.64641 92.0235 7.66828C92.1844 7.67921 92.3506 7.70654 92.5223 7.75028C92.6939 7.78307 92.8441 7.82681 92.9728 7.88147C93.1015 7.9252 93.1927 7.9744 93.2463 8.02907C93.3107 8.08373 93.3536 8.14386 93.375 8.20946C93.4072 8.27506 93.434 8.36799 93.4555 8.48825C93.4769 8.59758 93.493 8.76704 93.5037 8.99663C93.5145 9.22622 93.5198 9.53781 93.5198 9.93139Z" fill="#333333"/>
<path d="M109.352 23.2149C109.352 23.3242 109.32 23.4226 109.256 23.5101C109.202 23.5866 109.095 23.6522 108.934 23.7069C108.784 23.7506 108.575 23.7834 108.306 23.8053C108.038 23.8381 107.69 23.8545 107.261 23.8545C106.821 23.8545 106.461 23.8435 106.183 23.8217C105.914 23.7998 105.689 23.767 105.507 23.7233C105.335 23.6686 105.201 23.5975 105.105 23.5101C105.008 23.4226 104.922 23.3078 104.847 23.1657L100.068 15.458V23.1985C100.068 23.3078 100.036 23.4062 99.9719 23.4937C99.9075 23.5702 99.7949 23.6358 99.634 23.6905C99.4838 23.7451 99.28 23.7834 99.0226 23.8053C98.7651 23.8381 98.438 23.8545 98.0411 23.8545C97.6442 23.8545 97.317 23.8381 97.0596 23.8053C96.8022 23.7834 96.593 23.7451 96.4321 23.6905C96.2819 23.6358 96.1747 23.5702 96.1103 23.4937C96.0459 23.4062 96.0138 23.3078 96.0138 23.1985V1.6333C96.0138 1.52398 96.0459 1.42558 96.1103 1.33812C96.1747 1.25065 96.2819 1.17959 96.4321 1.12492C96.593 1.05933 96.8022 1.01013 97.0596 0.977329C97.317 0.94453 97.6442 0.928131 98.0411 0.928131C98.438 0.928131 98.7651 0.94453 99.0226 0.977329C99.28 1.01013 99.4838 1.05933 99.634 1.12492C99.7949 1.17959 99.9075 1.25065 99.9719 1.33812C100.036 1.42558 100.068 1.52398 100.068 1.6333V14.474L104.316 8.65224C104.402 8.52105 104.499 8.40625 104.606 8.30785C104.713 8.20946 104.852 8.13293 105.024 8.07826C105.206 8.0236 105.426 7.98533 105.684 7.96347C105.952 7.93067 106.29 7.91427 106.697 7.91427C107.094 7.91427 107.427 7.93067 107.695 7.96347C107.974 7.98533 108.194 8.0236 108.355 8.07826C108.526 8.13293 108.644 8.20399 108.709 8.29146C108.773 8.36799 108.805 8.46638 108.805 8.58664C108.805 8.75064 108.762 8.92556 108.677 9.11142C108.601 9.29728 108.483 9.49408 108.323 9.7018L104.123 14.556L108.982 22.2145C109.111 22.4332 109.202 22.6245 109.256 22.7885C109.32 22.9416 109.352 23.0837 109.352 23.2149Z" fill="#333333"/>
<path d="M115.901 23.1985C115.901 23.3078 115.869 23.4062 115.804 23.4937C115.74 23.5702 115.627 23.6358 115.466 23.6905C115.316 23.7451 115.112 23.7834 114.855 23.8053C114.598 23.8381 114.27 23.8545 113.874 23.8545C113.477 23.8545 113.149 23.8381 112.892 23.8053C112.635 23.7834 112.425 23.7451 112.265 23.6905C112.114 23.6358 112.007 23.5702 111.943 23.4937C111.878 23.4062 111.846 23.3078 111.846 23.1985V1.6333C111.846 1.52398 111.878 1.42558 111.943 1.33812C112.007 1.25065 112.114 1.17959 112.265 1.12492C112.425 1.05933 112.635 1.01013 112.892 0.977329C113.149 0.94453 113.477 0.928131 113.874 0.928131C114.27 0.928131 114.598 0.94453 114.855 0.977329C115.112 1.01013 115.316 1.05933 115.466 1.12492C115.627 1.17959 115.74 1.25065 115.804 1.33812C115.869 1.42558 115.901 1.52398 115.901 1.6333V23.1985Z" fill="#333333"/>
<path d="M132.184 23.2477C132.184 23.4008 132.13 23.521 132.023 23.6085C131.916 23.6959 131.744 23.7561 131.508 23.7889C131.283 23.8326 130.945 23.8545 130.494 23.8545C130.012 23.8545 129.658 23.8326 129.432 23.7889C129.218 23.7561 129.062 23.6959 128.966 23.6085C128.88 23.521 128.837 23.4008 128.837 23.2477V22.0833C128.247 22.7284 127.571 23.2313 126.81 23.5921C126.059 23.9529 125.222 24.1333 124.3 24.1333C123.538 24.1333 122.836 24.0294 122.192 23.8217C121.559 23.6249 121.007 23.3297 120.535 22.9361C120.074 22.5316 119.714 22.0341 119.457 21.4438C119.199 20.8534 119.071 20.1646 119.071 19.3774C119.071 18.5247 119.231 17.7867 119.553 17.1635C119.886 16.5294 120.374 16.0101 121.017 15.6056C121.672 15.1901 122.482 14.884 123.447 14.6872C124.412 14.4904 125.533 14.392 126.81 14.392H128.21V13.5065C128.21 13.0473 128.161 12.6482 128.065 12.3093C127.979 11.9595 127.829 11.6697 127.614 11.4401C127.41 11.2105 127.132 11.0411 126.778 10.9318C126.434 10.8224 126.005 10.7678 125.49 10.7678C124.815 10.7678 124.209 10.8443 123.672 10.9974C123.147 11.1504 122.68 11.3199 122.272 11.5057C121.865 11.6916 121.522 11.8611 121.243 12.0141C120.975 12.1672 120.755 12.2437 120.583 12.2437C120.465 12.2437 120.358 12.2054 120.261 12.1289C120.175 12.0524 120.1 11.9431 120.036 11.8009C119.982 11.6588 119.939 11.4839 119.907 11.2761C119.875 11.0684 119.859 10.8388 119.859 10.5874C119.859 10.2484 119.886 9.98059 119.939 9.7838C119.993 9.58701 120.095 9.41208 120.245 9.25902C120.395 9.09503 120.658 8.9201 121.034 8.73424C121.409 8.53745 121.849 8.35705 122.353 8.19306C122.857 8.02907 123.404 7.89787 123.994 7.79947C124.595 7.69014 125.212 7.63548 125.844 7.63548C126.971 7.63548 127.931 7.75028 128.725 7.97987C129.529 8.19853 130.189 8.54291 130.704 9.01303C131.218 9.47221 131.594 10.0681 131.83 10.8006C132.066 11.5331 132.184 12.4022 132.184 13.4081V23.2477ZM128.21 16.9831H126.665C126.011 16.9831 125.453 17.0323 124.992 17.1307C124.53 17.2291 124.155 17.3767 123.865 17.5735C123.576 17.7703 123.361 18.0108 123.222 18.2951C123.093 18.5684 123.029 18.8855 123.029 19.2462C123.029 19.8585 123.216 20.3395 123.592 20.6894C123.978 21.0392 124.509 21.2142 125.185 21.2142C125.753 21.2142 126.273 21.0666 126.745 20.7714C127.228 20.4762 127.716 20.0443 128.21 19.4758V16.9831Z" fill="#333333"/>
<path d="M149.947 23.1985C149.947 23.3078 149.915 23.4062 149.851 23.4937C149.786 23.5702 149.679 23.6358 149.529 23.6905C149.379 23.7451 149.169 23.7834 148.901 23.8053C148.644 23.8381 148.322 23.8545 147.936 23.8545C147.539 23.8545 147.206 23.8381 146.938 23.8053C146.681 23.7834 146.477 23.7451 146.327 23.6905C146.177 23.6358 146.069 23.5702 146.005 23.4937C145.941 23.4062 145.909 23.3078 145.909 23.1985V14.8512C145.909 14.1406 145.855 13.583 145.748 13.1785C145.651 12.774 145.506 12.4296 145.313 12.1453C145.12 11.8501 144.868 11.626 144.557 11.4729C144.257 11.3089 143.903 11.2269 143.495 11.2269C142.98 11.2269 142.46 11.4183 141.934 11.8009C141.409 12.1836 140.862 12.7412 140.293 13.4737V23.1985C140.293 23.3078 140.261 23.4062 140.197 23.4937C140.132 23.5702 140.02 23.6358 139.859 23.6905C139.709 23.7451 139.505 23.7834 139.247 23.8053C138.99 23.8381 138.663 23.8545 138.266 23.8545C137.869 23.8545 137.542 23.8381 137.284 23.8053C137.027 23.7834 136.818 23.7451 136.657 23.6905C136.507 23.6358 136.399 23.5702 136.335 23.4937C136.271 23.4062 136.238 23.3078 136.238 23.1985V8.57024C136.238 8.46092 136.265 8.36799 136.319 8.29146C136.373 8.20399 136.469 8.13293 136.609 8.07826C136.748 8.0236 136.925 7.98533 137.14 7.96347C137.365 7.93067 137.644 7.91427 137.976 7.91427C138.319 7.91427 138.604 7.93067 138.829 7.96347C139.054 7.98533 139.226 8.0236 139.344 8.07826C139.473 8.13293 139.564 8.20399 139.617 8.29146C139.671 8.36799 139.698 8.46092 139.698 8.57024V10.2594C140.492 9.38475 141.296 8.72877 142.111 8.29146C142.937 7.85414 143.795 7.63548 144.686 7.63548C145.662 7.63548 146.482 7.79947 147.147 8.12746C147.823 8.45545 148.365 8.9037 148.772 9.47221C149.191 10.0298 149.491 10.6858 149.674 11.4401C149.856 12.1945 149.947 13.1019 149.947 14.1624V23.1985Z" fill="#333333"/>
<path d="M164.798 20.8698C164.798 21.154 164.787 21.3946 164.766 21.5914C164.755 21.7772 164.734 21.9357 164.701 22.0669C164.68 22.1981 164.648 22.3075 164.605 22.3949C164.573 22.4715 164.492 22.5753 164.364 22.7065C164.235 22.8268 164.015 22.9798 163.704 23.1657C163.393 23.3406 163.039 23.4992 162.642 23.6413C162.245 23.7834 161.811 23.8982 161.339 23.9857C160.877 24.0731 160.4 24.1169 159.907 24.1169C158.802 24.1169 157.82 23.9419 156.962 23.5921C156.115 23.2422 155.402 22.7284 154.822 22.0505C154.243 21.3618 153.803 20.5254 153.503 19.5414C153.213 18.5575 153.068 17.4314 153.068 16.1632C153.068 14.6981 153.245 13.4354 153.599 12.3749C153.964 11.3035 154.468 10.4179 155.112 9.7182C155.756 9.01849 156.517 8.49918 157.397 8.16026C158.276 7.82134 159.242 7.65188 160.293 7.65188C160.722 7.65188 161.14 7.69014 161.548 7.76667C161.966 7.84321 162.352 7.94707 162.706 8.07826C163.071 8.20946 163.393 8.35705 163.672 8.52105C163.961 8.68504 164.165 8.82717 164.283 8.94743C164.401 9.06769 164.482 9.17156 164.524 9.25902C164.578 9.33555 164.616 9.43941 164.637 9.57061C164.669 9.7018 164.691 9.8658 164.701 10.0626C164.723 10.2484 164.734 10.478 164.734 10.7514C164.734 11.3855 164.68 11.8337 164.573 12.0961C164.465 12.3476 164.326 12.4733 164.154 12.4733C163.972 12.4733 163.779 12.3968 163.575 12.2437C163.371 12.0906 163.13 11.9212 162.851 11.7353C162.572 11.5495 162.24 11.38 161.854 11.2269C161.467 11.0739 161.006 10.9974 160.47 10.9974C159.419 10.9974 158.614 11.4128 158.056 12.2437C157.499 13.0637 157.22 14.2718 157.22 15.868C157.22 16.6551 157.289 17.3494 157.429 17.9507C157.568 18.552 157.772 19.0549 158.04 19.4594C158.319 19.864 158.662 20.1701 159.07 20.3778C159.488 20.5746 159.971 20.673 160.518 20.673C161.076 20.673 161.553 20.591 161.95 20.427C162.358 20.2521 162.712 20.0607 163.012 19.853C163.312 19.6453 163.564 19.4594 163.768 19.2954C163.972 19.1205 164.144 19.0331 164.283 19.0331C164.38 19.0331 164.46 19.0604 164.524 19.115C164.589 19.1697 164.637 19.2736 164.669 19.4266C164.712 19.5688 164.744 19.7546 164.766 19.9842C164.787 20.2138 164.798 20.509 164.798 20.8698Z" fill="#333333"/>
<path d="M181.001 15.458C181.001 15.9609 180.888 16.3326 180.663 16.5731C180.448 16.8137 180.148 16.9339 179.762 16.9339H171.025C171.025 17.5571 171.095 18.1256 171.234 18.6395C171.384 19.1424 171.615 19.5742 171.926 19.935C172.248 20.2849 172.655 20.5527 173.149 20.7386C173.653 20.9244 174.254 21.0174 174.951 21.0174C175.659 21.0174 176.281 20.9682 176.817 20.8698C177.354 20.7605 177.815 20.6457 178.201 20.5254C178.598 20.3942 178.925 20.2794 179.182 20.181C179.44 20.0717 179.649 20.017 179.81 20.017C179.906 20.017 179.987 20.0389 180.051 20.0826C180.116 20.1154 180.169 20.181 180.212 20.2794C180.255 20.3778 180.282 20.5199 180.293 20.7058C180.314 20.8807 180.325 21.1048 180.325 21.3782C180.325 21.6187 180.319 21.8264 180.309 22.0013C180.298 22.1653 180.282 22.3075 180.26 22.4277C180.239 22.548 180.207 22.6518 180.164 22.7393C180.121 22.8158 180.062 22.8924 179.987 22.9689C179.923 23.0454 179.735 23.1493 179.424 23.2805C179.113 23.4117 178.716 23.5429 178.233 23.6741C177.75 23.7943 177.198 23.8982 176.576 23.9857C175.954 24.0841 175.289 24.1333 174.581 24.1333C173.304 24.1333 172.183 23.9693 171.218 23.6413C170.263 23.3133 169.464 22.8158 168.82 22.1489C168.177 21.482 167.694 20.6402 167.372 19.6234C167.061 18.6067 166.906 17.415 166.906 16.0484C166.906 14.7473 167.072 13.5775 167.405 12.5389C167.737 11.4893 168.22 10.6038 168.853 9.8822C169.486 9.14969 170.252 8.59211 171.154 8.20946C172.065 7.82681 173.09 7.63548 174.227 7.63548C175.428 7.63548 176.452 7.81587 177.3 8.17666C178.158 8.53745 178.861 9.04036 179.408 9.6854C179.955 10.3195 180.357 11.0739 180.614 11.9485C180.872 12.8232 181.001 13.7743 181.001 14.802V15.458ZM177.075 14.2772C177.107 13.1183 176.876 12.2109 176.383 11.5549C175.9 10.888 175.149 10.5546 174.13 10.5546C173.615 10.5546 173.165 10.653 172.779 10.8498C172.403 11.0466 172.087 11.3144 171.829 11.6533C171.583 11.9813 171.39 12.3749 171.25 12.8341C171.121 13.2823 171.046 13.7634 171.025 14.2772H177.075Z" fill="#333333"/>
<path d="M0.563048 7.27628C0.130259 6.52667 0.671245 5.58966 1.53682 5.58966L5.36871 5.58966C6.61424 5.58966 7.76544 6.25318 8.38978 7.33092L14.1729 17.3137C14.3931 17.6937 14.3718 18.1672 14.1184 18.526L11.2474 22.5912C10.7741 23.2614 9.76547 23.2154 9.3552 22.5047L0.563048 7.27628Z" fill="#007BFF"/>
<path d="M20.1593 5.93499C19.7726 5.26517 20.1619 4.41396 20.9216 4.26844L23.9521 3.68789C25.4092 3.40877 26.8835 4.0809 27.6284 5.36386L30.2654 9.90564C30.5195 10.3434 30.4499 10.897 30.0952 11.2581L26.8097 14.6033C26.2886 15.1337 25.4054 15.0215 25.0337 14.3776L20.1593 5.93499Z" fill="#007BFF"/>
<path d="M9.24884 4.35914C8.81605 3.60953 9.35704 2.67251 10.2226 2.67251L14.0545 2.67251C15.3 2.67251 16.4512 3.33603 17.0756 4.41377L22.8587 14.3965C23.0789 14.7766 23.0576 15.2501 22.8042 15.6088L19.9332 19.674C19.4599 20.3443 18.4513 20.2982 18.041 19.5876L9.24884 4.35914Z" fill="#007BFF"/>
</svg>
